# xmcd CD database file
#
# Track frame offsets:
#	150
#	14682
#	26035
#	40952
#	58035
#	73088
#	89361
#	104378
#	118761
#	136936
#	156447
#	172167
#	186961
#	199772
#	218109
#	237006
#	253334
#	263769
#
# Disc length: 3729 seconds
#
# Revision: 0
# Processed by: cddbd v1.5.1PL2 Copyright (c) Steve Scherf et al.
# Submitted via: CDex 1.51
#
DISCID=120e8f12
DTITLE=Blackburn-Balluff Creole Four - Creole Love Songs
DYEAR=2002
DGENRE=Jazz
TTITLE0=Ol' Stack o' Lee Blues
TTITLE1=Promenade aux Champs Elysées
TTITLE2=Jitterbug Waltz
TTITLE3=Creole Love Call
TTITLE4=Goin' Down to New Orleans
TTITLE5=Si Tu Vois Ma Mère (If You See My Mother)
TTITLE6=Kansas City Man Blues
TTITLE7=Gypsy Love Song
TTITLE8=I Want a Little Girl
TTITLE9=China Boy
TTITLE10=En Attendent le Jour (Waiting for the Dawn)
TTITLE11=Petite Fleur (Little Flower)
TTITLE12=Should I?
TTITLE13=Breeze
TTITLE14=San Jacinto Stomp (I Can't Escape From You?
TTITLE15=Sweet Sue
TTITLE16=Blues in My Heart
TTITLE17=Some of These Days
EXTD=YEAR: 2002
EXTT0=
EXTT1=
EXTT2=
EXTT3=
EXTT4=
EXTT5=
EXTT6=
EXTT7=
EXTT8=
EXTT9=
EXTT10=
EXTT11=
EXTT12=
EXTT13=
EXTT14=
EXTT15=
EXTT16=
EXTT17=
PLAYORDER=
